<?xml version="1.0" encoding="UTF-8"?>
<svg version="1.1" viewBox="0 0 678.96 918.91" xmlns="http://www.w3.org/2000/svg">
 <g transform="translate(-22.476 -599.43)">
  <g transform="translate(-1.0156 .54684)">
   <g transform="matrix(1.211 0 0 1.211 1119 1089)">
    <path d="m-588.35-404.75-9.2866 0.0761h-9.3627l-1.0277 0.68508-1.1037 0.72307h-3.3492l-1.3322 1.3322-1.2939 1.2559-5.9373 1.0657-5.9373 0.95156-2.9688 0.15224-2.9685 0.0761-1.865 1.1799-1.865 1.2559-4.8335 0.53283-4.8335 0.53284-7.4217 0.30448-7.4217 0.34247-17.85-0.15223-17.812-0.11412h-11.151l-6.0896 0.79931-6.1658 0.7992-3.882 2.0933-3.8441 2.0932-4.1104 4.0723-4.1486 4.1104-3.6537 2.7403-3.6537 2.7403-4.8716 2.0172-4.9096 1.941-2.4738 1.0277-2.4358 1.0277h-2.6644l-3.273 2.8163-3.2732 2.9307-4.6813 3.0448-4.6813 3.1209h-3.2732l-2.8163 1.8269-2.7784 1.9411-0.4186 1.6365-0.38072 1.6365-2.6641 2.0933-2.7023 1.9791-2.8925 0.83731-2.8925 0.72308-4.6814 4.6434-4.6052 4.6052-6.5463 6.0896-6.4702 6.1657h-1.332l-3.121 5.2522-3.1208 5.2904-7.6501 7.4977-7.6501 7.574-3.6537 3.5775-3.6917 3.5015-2.3216 4.9859-2.3598 4.9478-0.076 5.5947v5.6328l-1.4083 1.5605-1.4083 1.4843-1.8649 5.3665-1.8649 5.3665v1.7506l-1.3322 1.4844-1.4082 1.5604-0.83744 3.806-0.79919 3.806 0.34247 1.4844 0.45672 1.5604-1.7888 2.8165-1.8268 2.8925-0.8373 2.4358-0.7992 2.4738-1.4464 2.0171-1.4082 1.9791-0.9514 2.6262-0.9516 2.5881-0.6089 3.3492-0.609 3.3493-0.723 4.529-0.7612 4.5292-0.7994 2.0171-0.7611 1.9791v4.1867l-1.4083 4.0723-1.4082 4.1486 0.0762 2.7022 0.0761 2.6642-1.5604 1.6366-1.5605 1.7126 0.3806 2.2836 0.3806 2.3216-1.0657 2.1313-0.9516 2.1695 0.0763 3.7298 0.076 3.6917 0.5709 4.0345 0.5329 3.9962-1.7128 1.3322-1.7126 1.2939 0.8373 1.7509 0.8753 1.7126 0.3807 2.6261 0.3805 2.5881 1.1038 4.8336 1.1798 4.8336v6.7745l0.7612 0.7232 0.6471 0.68507 0.3806 4.7575 0.4567 4.7574 0.6469 2.2836 0.7612 2.3216 0.7232 4.7956 0.8373 4.8335 0.8754 11.152 0.9134 11.151v4.4529l-0.076 4.453-1.256 2.6262-1.2179 2.5881-4.9858 3.7297-4.8717 3.6919-1.5605 1.5605-1.5605 1.6365-3.5015 3.7299-3.5775 3.6537 0.076 1.7507 0.1523 1.7887-1.2559 2.8545-1.1799 2.7403 0.3426 1.7126 0.4567 1.7127-0.7993 2.1313-0.9135 2.2455-1.0275 7.0411-1.1418 7.0791v8.906l-0.038 8.906 1.5604 3.9582 1.5604 3.9202v6.2418l1.1799 5.9753 1.1799 5.9373 0.5327 2.5881 0.4948 2.5881 0.8373 1.4844 0.7232 1.5224 2.0933 10.771 2.0932 10.771 3.197 9.7814 3.2733 9.7433v3.197l1.4081 2.0172 1.3322 2.0171 2.664 4.0725 2.6643 4.0723 1.2179 3.3493 1.1798 3.3493 1.0276 0.60896 1.1038 0.57084v2.2456l2.9306 3.9202 2.9686 4.0342 1.9411 0.45672 1.903 0.49483 3.5776 2.55 3.5776 2.5881 3.9963 1.7889 4.0342 1.7126 4.0724 0.79932 4.0724 0.83731 4.8335 0.7232 4.8335 0.83719 2.8165 0.41872 2.8544 0.45671 0.64708 1.7889 0.68495 1.7888-0.38047 1.0276-0.45672 1.1038 3.0067 18.992 1.0276 2.1314v0.0381l-0.68496 2.4739 0.68496 6.6223 0.72319 6.6225-0.0761 2.4358-0.0761 2.4738 1.1418 1.6366 1.1038 1.5604v3.4254l0.076 3.3111 1.0277 1.865 1.0277 1.865 0.076 2.3596v2.474h1.5605l1.1418 2.8164 1.1799 2.7403 1.332 1.4844 1.256 1.4843 0.53271 2.2455 0.53296 2.1695 2.2073 2.9687 2.1695 2.9687v1.7128l1.5605 1.4082 1.5604 1.4082 1.1799 2.2456 1.1037 2.2075 2.3216 2.9687 2.2836 2.9687 3.121 3.3493 3.197 3.3492 1.4082 1.5605 1.5224 1.4843 0.72319 1.941 0.7612 1.9411 1.6746 0.26648 1.7126 0.22824 0.22836 1.865 0.22836 1.865 0.95143 0.72308 0.91343 0.76119 0.53296 1.256 0.4186 1.332h3.5015l3.5015 4.0343 3.5015 3.9962 2.7403 0.98968 2.8164 0.87531 3.3493 3.5015 3.3492 3.4254 2.8164 1.6746 2.7403 1.7126v1.3702l4.1866 2.8165 4.1484 2.7403 2.5881 1.4082 2.6262 1.3322 0.64707 1.6365 0.7612 1.5605 2.3596 1.6365 2.3978 1.6365 4.4529 5.1381 4.453 5.1 3.5015 2.1695 3.5396 2.1694v1.8649l2.8544 1.7509 2.7403 1.7126 1.1038 1.3322 1.0276 1.2939 4.491 2.8925 4.4529 2.8925h1.4844l2.5881 1.7889 2.6642 1.7126 6.3179 4.0724 6.3179 4.0724 4.4149 2.9305 4.453 2.8925 3.6917 2.0552 3.806 2.0172 0.72319 1.0657 0.8372 1.0276 3.2732 0.87531 3.3493 0.83743 4.8335 2.5118 4.7955 2.474 3.3492 0.87531 3.3493 0.87543 1.1418 0.98956 1.1038 0.87531 4.0723 1.256 4.1105 1.294 1.4843 0.7992 1.4844 0.83743 5.1761 1.4843 5.2141 1.4843 3.3492 0.0762 3.3493 0.15224 1.4844 0.49471 1.4844 0.45672 6.6985 0.79919 6.6604 0.83744h32.426l7.1934-2.5881 7.1932-2.6262 5.5948-0.87532 5.5566-0.83743 2.5501-1.0276 2.4358-1.0276h2.5119l5.8992-2.4739 5.9373-2.4358 2.9688-2.0172 2.9685-2.0171 1.865-1.2559 1.865-1.256 5.9373-5.5187 5.9373-5.4806 5.5186-5.2902 5.4806-5.3284 3.5776-4.2627 3.5015-4.2246 9.4769-9.3628 9.591-9.3626 4.1104-4.0724 4.0723-4.0343h1.865l2.0171-3.1209 2.0552-3.0448 1.865-3.2731 1.8649-3.197 4.7574-7.9925 4.7575-7.9544 2.6642-4.0345 2.6642-3.9962 2.0172-3.806 2.0171-3.768 1.4844-4.6052 1.4843-4.6433 1.0276-2.0552 1.1419-2.0934 2.7403-7.8022 2.8163-7.8022 0.60895-2.5881 0.49484-2.6262 0.83731-2.2075 0.7232-2.2456 3.3492-10.771 3.273-10.771 0.53296-3.3492 0.57083-3.3493 1.6365-5.6328 1.7128-5.7091 0.53283-4.3387 0.45672-4.3769 0.64696-2.5881 0.68519-2.5881 0.4186-2.0171 0.3806-2.0934 2.3216-2.2836 2.2076-2.3216-0.41871-2.0934-0.45672-2.1313 0.79919-1.5604 0.83744-1.5605 0.38047-3.1209 0.3426-3.1209 1.7128-9.2866 1.7888-9.2866 0.91343-5.5947 0.79932-5.5568 0.83719-2.8925 0.72319-2.9685 0.68508-5.5948 0.57083-5.6328 0.83744-8.3351 0.72307-8.4111 0.91344-1.9791 0.95155-2.0933v-32.694l1.4082-3.7299 1.4082-3.6917 0.68519-0.6852 0.57084-0.72307v-2.9307l2.7022-7.8783 2.6643-7.8783 1.7888-4.453 1.7128-4.453 3.3492-11.494 3.273-11.532 0.49483-3.7299 0.53284-3.6919 1.0277-4.4529 0.98943-4.491-0.15223-1.1038-0.076-1.1037 0.57083-5.5948 0.60896-5.5566 0.95155-2.2456 0.91344-2.2836 0.45671-4.7574 0.49472-4.8336 0.0761-5.5567 0.15224-5.5947-0.53284-13.359-0.41872-13.397-0.45671-4.4529-0.38048-4.453-1.0277-3.3492-1.0277-3.3493-0.83719-6.3179-0.79931-6.3179-1.0657-3.5015-1.0276-3.4634-1.865-2.8165-1.941-2.8544v-2.9687l-1.4083-4.4529-1.332-4.453-1.3322-2.5881-1.2559-2.6262-1.0277-0.68496-0.11424-0.68519-0.49471-2.9305-7.4217-18.269-1.0657-1.9411-1.4843-3.3492-1.4843-3.3493-0.53295-1.7887-0.49472-1.7888-2.0171-3.3874-2.0934-3.4254-0.41872-3.7298-0.53271-3.6919-1.1799-3.6537-1.2559-3.6537 0.4186-6.6604 0.3806-6.6985-1.0277-4.3768-1.0657-4.4149-1.4082-2.7403-1.4082-2.8166-0.49483-2.7403-0.53284-2.7783-2.5501-3.1209-2.5118-3.1589v-1.7128l-1.256-0.98955-1.1798-1.0277-2.7023-4.0723-2.5881-4.1104-2.7403-2.9687-2.8164-2.9687-3.5776-4.1486-3.5776-4.2627c-2.9826-3.5025-5.9437-7.023-8.906-10.542l-7.3455-8.3351-7.3837-8.2209-7.5738-7.5357-7.5738-7.4978-2.1695-1.1038-2.1313-1.1037-3.7299-3.0448-3.7298-3.0448-2.2075-1.4844-2.3216-1.5604-1.7127-3.5015-1.6746-3.4254-1.5605-1.7888-1.6365-1.7128-1.7888-2.3597-1.7889-2.3216-2.8925-2.0172-2.9687-1.9791-2.1695-1.2179-2.0932-1.1798-2.4358-1.7889-2.474-1.8269-2.0551-0.91344-2.1695-0.87543-4.3768-1.4843-4.3008-1.4843h-2.0933l-9.9718-3.9582-9.9335-3.9963-3.7299-0.91343-3.6156-0.87532-1.0657-1.4844-0.95156-1.4082h-2.3977l-1.1799-0.98967-1.1799-0.95143-2.9685-0.91344-2.9688-0.79919-20.096-0.76119z" fill="#fff"/>
   </g>
   <g transform="matrix(1.1379 0 0 1.1379 -41.411 -158.9)">
    <path d="m376.04 687.25-1.1147 0.74311h-3.344l-1.3376 1.3376-1.2633 1.2633-5.9449 1.0404-5.9449 0.96604-2.9724 0.14862-2.9724 0.0743-1.8578 1.189-1.8578 1.2633-4.8302 0.52018-4.8302 0.52018-7.4311 0.29724-7.4311 0.37156-17.835-0.14862-17.835-0.14862h-11.147l-6.0935 0.81742-6.1678 0.81742-3.8642 2.0807-3.8642 2.0807-4.0871 4.0871-4.1614 4.0871-3.6412 2.7495-3.6412 2.7495-4.9045 2.0064-4.9045 1.9321-2.4523 1.0404-2.4523 1.0404h-2.6752l-3.2697 2.8238-3.2697 2.8981-4.6816 3.0468-4.6816 3.1211h-3.2696l-2.8238 1.8578-2.7495 1.9321-0.44586 1.6348-0.37156 1.6348-2.6752 2.0807-2.6752 2.0064-2.8981 0.81742-2.8981 0.74311-4.6816 4.6073-4.6073 4.6073-6.5394 6.0935-6.4651 6.1678h-1.3376l-3.1211 5.2761-3.1211 5.2761-7.654 7.5054-7.654 7.5797-3.6412 3.5669-3.7156 3.4926-2.3036 4.9788-2.378 4.9788-0.0743 5.5733v5.6476l-1.4119 1.5605-1.4119 1.4862-1.8578 5.3504-1.8578 5.3504v1.7835l-1.3376 1.4862-1.4119 1.5605-0.81742 3.7899-0.81743 3.7899 0.37156 1.4862 0.44587 1.5605-1.7835 2.8238-1.8578 2.8981-0.81742 2.4523-0.81743 2.4523-1.4119 2.0064-1.4119 2.0064-0.96604 2.6009-0.96605 2.6009-0.59449 3.344-0.59449 3.344-0.74311 4.533-0.74311 4.533-0.81742 2.0064-0.74311 2.0064v4.1614l-1.4119 4.0871-1.4119 4.1614 0.0743 2.6752 0.0743 2.6752-1.5605 1.6348-1.5605 1.7092 0.37156 2.3036 0.37156 2.3036-1.0404 2.155-0.96604 2.155 0.07431 3.7156 0.07431 3.7156 0.59449 4.0128 0.52018 4.0128-1.7092 1.3376-1.7092 1.2633 0.81742 1.7835 0.89173 1.7092 0.37156 2.6009 0.37156 2.6009 1.1147 4.8302 1.189 4.8302v6.7623l0.74311 0.74312 0.6688 0.6688 0.37155 4.7559 0.44587 4.7559 0.6688 2.3036 0.74311 2.3036 0.74311 4.8302 0.81743 4.8302 0.89173 11.147 0.89173 11.147v4.4587l-0.0743 4.4586-1.2633 2.6009-1.189 2.6009-4.9789 3.7156-4.9045 3.7155-1.5605 1.5606-1.5605 1.6348-3.4926 3.7156-3.5669 3.6412 0.07431 1.7835 0.14862 1.7834-1.2633 2.8239-1.189 2.7495 0.37156 1.7091 0.44587 1.7092-0.81742 2.155-0.89173 2.2294-1.0404 7.0595-1.1147 7.0596v8.9173l-0.07431 8.9174 1.5605 3.9384 1.5605 3.9385v6.2422l1.189 5.9449 1.189 5.9449 0.52018 2.6008 0.52018 2.6009 0.81742 1.4863 0.74311 1.4862 2.0807 10.775 2.0807 10.775 3.1954 9.8091 3.2697 9.7347v3.1954l1.4119 2.0064 1.3376 2.0064 2.6752 4.0871 2.6752 4.0872 1.189 3.344 1.189 3.344 1.0404 0.5944 1.1147 0.5945v2.2294l2.8981 3.9385 2.9724 4.0128 1.9321 0.4458 1.9321 0.5202 3.5669 2.5266 3.5669 2.6009 4.0128 1.7834 4.0128 1.7092 4.0871 0.8174 4.0871 0.8174 4.8302 0.7432 4.8302 0.8174 2.8238 0.4458 2.8238 0.4459 0.6688 1.7835 0.6688 1.7835-0.37156 1.0403-0.44587 1.1147 1.2633 2.6009 1.2633 2.6752h4.6816l2.9724-1.4119 2.9724-1.3376 1.0404-1.189 0.96605-1.189-0.0743-2.4523v-2.4522l-0.74311-3.7156-0.74312-3.7156-0.6688-2.6008-0.6688-2.6009-1.2633-2.6009-1.2633-2.6009-2.0064-3.7156-2.0064-3.7155-2.0807-0.223-2.0807-0.2229-0.96605 0.7431-0.96604 0.8174-1.7835-0.074-1.7835-0.074-12.261-0.074-12.261-0.1486-2.3036-1.2633-2.378-1.2633-2.9724-3.4183-2.9724-3.344-1.7092-4.6816-1.7092-4.6073-1.5605-2.6009-1.5605-2.6009-2.0807-5.2018-2.0807-5.2017-0.96604-2.2294-0.89174-2.2293-0.59448-2.6009-0.52018-2.6009-0.59449-0.7431-0.59449-0.7431-1.2633-4.4587-1.2633-4.4587-2.155-8.4714-2.155-8.5458 0.89173-0.5202 0.81742-0.5202 1.5605 0.5202 1.5605 0.5945 1.189 3.2697 1.189 3.2697 0.44587 1.1146 0.44587 1.1147 0.44587 3.4926 0.44586 3.567 0.74311 0.3715 0.6688 0.4459v4.8302l2.4523 5.1275 2.5266 5.2018 1.3376 3.9385 1.2633 4.0128 3.4926 3.5669 3.4183 3.5669 2.378-0.3715 2.378-0.3716 1.2633-3.1954 1.189-3.1953-1.4862-3.1954-1.4119-3.2697-1.4119-1.189-1.4119-1.2633-3.7899-1.9321-3.7899-2.0064-1.5605-1.6348-1.4862-1.6349-0.96605-3.344-0.89173-3.344-0.6688-0.7431-0.59449-0.6688v-2.7495l-1.0404-1.6348-1.0404-1.6349-0.59449-5.5733-0.59449-5.5733 0.14862-5.9449 0.0743-5.9449 0.89174-6.688 0.81742-6.688 1.0404-1.8578 0.96605-1.8578 3.2697-3.5669 3.2697-3.6413 3.0468-0.3715 3.1211-0.4459 0.52017 1.4119 0.52018 1.4119v5.2018l-2.0064 3.1211-2.0064 3.1954v2.0064l-1.5605 1.4119-1.5605 1.4119 0.37156 8.5458 0.37155 8.5457 0.74311 3.7156 0.74312 3.7156 2.7495 7.9513 2.7495 8.0256 3.2697 2.155 3.2697 2.155 5.0532 0.8174 4.9788 0.8174 2.0807 0.4459 2.0807 0.4459 1.7092 3.4926 1.7835 3.4926 2.2293 2.378 2.2293 2.3779h4.6072l1.189-1.8577 1.189-1.8578-0.74311-2.8238-0.81742-2.7496-1.189-3.344-1.189-3.344-4.0871-4.0871-4.0128-4.1614-0.6688-2.3036-0.6688-2.378 0.74311-2.9724 0.74311-2.9725 1.4862-1.2633 1.4119-1.3376 1.2633 0.7431 1.2633 0.8175 0.22294 1.7834 0.29724 1.7835 0.81742 0.966 0.74311 0.9661 1.5605-0.223 1.5605-0.2229 0.59449-3.344 0.59449-3.344 0.6688-13.748 0.59449-13.748 2.378-10.404 2.3036-10.404 1.0404-7.4311 1.1147-7.4312 0.74311-3.5669 0.74311-3.6413v-2.6752l0.0743-2.7495 1.4862-5.2017 1.4119-5.2018 0.81742-4.4587 0.81742-4.4587 1.4862-7.0595 1.4862-7.0596 4.0128-6.3907 4.0128-6.4651v-1.0404l2.155-2.7495 2.155-2.6752 2.7495-4.8302 2.6752-4.8302 2.2293-2.9724 2.2293-2.9724 0.52018-1.189 0.52018-1.2633 2.6009-3.1211 2.6009-3.0468 5.3504-5.5733 5.2761-5.499 1.3376-3.8642 1.2633-3.9385 0.22294-2.9724 0.22293-2.9724 0.52018-6.0192 0.52018-6.0192-0.96605-2.8981-1.0404-2.8981v-6.5394l-0.0743-6.6137-1.9321-1.5605-2.0064-1.6348-1.189-2.4523-1.2633-2.4523-1.0404-0.37156-1.0404-0.44586-1.2633-3.7156-1.189-3.6412 0.52018-2.7495 0.52018-2.7495v-5.2018l-0.0743-5.2018-0.59449-6.3164-0.59449-6.3164-3.9385-0.22293-3.9385-0.22294-2.2293 2.378-2.155 2.3036-0.44587 2.0064-0.44586 1.9321-3.4183 6.8366-3.4183 6.9109-1.2633 0.37156-1.3376 0.44586-1.5605-0.81742-1.4862-0.81742v-2.8238l1.4119-0.44586 1.4862-0.44587 0.52018-3.344 0.52017-3.4183-0.6688-3.4183-0.59448-3.4926 0.14862-3.1211 0.0743-3.1211 1.4862-2.9724 1.5605-2.9724v-2.3037h-8.8431l-1.189-1.2633-1.2633-1.2633 1.3376-0.96605 1.3376-0.96604h2.8981l5.5733-2.6752 5.6476-2.7495 4.0871-0.0743 4.0871-0.0743 0.74311-2.378 0.6688-2.4523 1.4119-0.44586 1.4862-0.44587 2.8981-2.6009 2.8981-2.6009v-2.6752l-1.2633-0.44587-1.2633-0.52018-3.7156 1.2633-3.7899 1.189-2.4523 1.189-2.5266 1.189-2.6752 2.7495-2.7495 2.6752-1.8578 0.59449-1.8578 0.59449-2.9724 1.6348-2.9724 1.7092-2.3036 0.44587-2.3036 0.52018-1.2633-1.8578-1.189-1.8578v-1.7835l1.7835-2.378 1.8578-2.378 2.0807-0.52018 2.0807-0.44587 2.2293-1.7835 2.155-1.8578-1.2633-1.4119-1.2633-1.4119v-3.0467l1.3376-1.4119 1.2633-1.4862 4.31-1.2633 4.31-1.2633 6.0935-4.0871 6.0935-4.0871 1.7092-0.44587 1.7835-0.44587 3.4926 1.189 3.4926 1.1147 2.0807-0.37156 2.155-0.44586 5.8706-5.9449 5.7963-5.9449 2.9724-4.533 2.8981-4.533 1.6348-2.0807 1.5605-2.0807 4.1614-2.6009 4.0871-2.6752 1.189-0.44587 1.189-0.37156 2.0807-1.7835 2.155-1.7092h1.5605l6.1678-3.7156 6.1678-3.7156h2.0808l6.1678-2.2293 6.2421-2.2293 1.7835-1.3376 1.8578-1.2633 2.2293-1.4862 2.155-1.5605 1.2633-2.5266 1.2633-2.6009 2.155 0.22293 2.2293 0.22293 9.2889 0.44587 9.2889 0.37156 2.8981-0.89174 2.9724-0.89173 7.8027-0.74311 7.877-0.74311 5.722-0.37156 5.722-0.29724 0.44586-1.4119 0.44587-1.3376 0.96605-0.81742 1.0404-0.81742 4.31 1.1147 4.31 1.1147h5.5733l1.0404-1.0404 1.0404-1.1147 0.52018-2.9724 0.44587-3.0468h1.3376l5.2761 4.8302 5.2761 4.8302 2.0064 0.44586 2.0807 0.52018 2.3036 1.7835 2.3036 1.7092h2.8981l2.5266-1.8578 2.5266-1.8578h1.8578l3.344-1.1147 3.4183-1.189 2.0064 1.3376 2.0807 1.2633 3.8642 3.1954 3.7899 3.1954h3.567l4.8302-2.6009 4.9045-2.6009 0.44587-4.533 0.37155-4.533 2.7495-5.3504 2.7495-5.4247-2.155-2.2293-2.0807-2.2293-1.3376-2.0064-1.3376-1.9321h-5.0532l-0.81742 2.9724-0.81742 2.9724h-1.189l-1.7835-1.4119-1.7835-1.3376-2.8238-0.52018-2.7495-0.52017-1.7092-2.6009-1.6348-2.5266-3.0468-1.4862-2.9724-1.4862h-12.038l-2.0064 1.0404-2.0064 1.0404-2.3036-0.6688-2.378-0.6688h-5.0532l-2.4523-1.5605-2.5266-1.4862-1.6348 0.22293-1.7092 0.22293-1.5605 2.9724-1.5605 2.9724-1.0404-0.14862-1.0404-0.14862-1.4862-0.44587-1.4862-0.37155-2.4523 1.4862-2.378 1.4862-0.89174 2.0064-0.89173 2.0807-0.22294 0.29724-0.22293 0.29725-1.2633-1.189-1.3376-1.189-2.0064-0.74311-2.0064-0.74311-1.189 1.1147-1.1147 1.1147v6.6137h-1.4862l-1.0404-1.7092-1.0404-1.6348-0.52018-1.8578-0.52018-1.8578-1.5605-1.7092-1.4862-1.6348h-3.7156l-2.7495-0.81742-2.8238-0.89173-1.9321 0.52017-1.9321 0.44587-1.1147 2.3036-1.189 2.3036-0.44587 5.1275-0.44587 5.1275-1.3376 0.37156-1.3376 0.44586-1.5605-0.81742-1.6348-0.89173-2.8238-2.7495-2.8238-2.7495-2.7495-0.81742-2.7495-0.89173-0.81742 0.37155-0.89174 0.29725-4.8302 0.6688-4.8302 0.74311-2.0807 0.52018-2.0807 0.52017-6.4651-2.0807-6.4651-2.0064-1.9321-0.74311-2.0064-0.6688-1.7092-2.7495-1.7835-2.7495-4.4587-2.8981-4.4587-2.9724-3.2697 0.14862-3.2697 0.14863-1.189 0.37155-1.189 0.44587-1.4119 1.8578-1.3376 1.9321 0.74312 1.7835 0.81742 1.7092 3.0468 1.5605 2.9724 1.4862v2.2294h-4.8303l-2.155 3.5669-2.155 3.4926-2.4523 2.6009-2.378 2.6009-1.2633 4.0871-1.189 4.0871-1.2633 2.5266-1.2633 2.6009-0.89174 0.22293-0.81742 0.29725-1.8578-2.0064-1.8578-2.0064-2.155 0.59448-2.0807 0.59449-5.2761 0.14863-5.2761 0.14862-2.0807 0.52018-2.0064 0.52017-1.4119-0.44586-1.4119-0.44587v-4.2357l1.8578-1.189 1.8578-1.189 2.6752-0.59449 2.7495-0.59449 0.81742-1.2633 0.81743-1.2633-2.378-2.3036-2.4523-2.2293v-2.2294l2.6009-1.1147 2.5266-1.0404h6.6137l0.37156-2.2293 0.44586-2.155 2.4523-1.1147 2.4523-1.0404 3.7899-2.8238 3.8642-2.8981 4.2357-2.6009 4.2357-2.6009 4.0128-3.7156 4.0871-3.7156 3.1211-1.7092 3.1211-1.6348h3.344l1.7835 2.7495 1.7835 2.8238 3.7899 4.0871 3.7899 4.0871v1.0404l1.4862 0.44587 1.4862 0.44587 4.7559-2.6009 4.7559-2.6752h3.7156l2.5266 1.0404 2.6009 1.1147 3.6412-1.7092 3.6412-1.7092 0.96604-2.0064 0.89174-2.0064 4.1614-1.9321 4.1614-1.8578 4.1614-0.22294 4.2357-0.14862 8.5458 1.4119 8.5458 1.4862 6.0935-0.52018 6.0935-0.52018 2.8238-2.2293 2.8238-2.2293 3.7156-1.7092 3.7156-1.7092 4.4587-1.4862 4.4587-1.4862 3.4183-0.81742 3.344-0.74311 7.2825 0.29724 7.2082 0.29725 5.6476 1.189 5.6476 1.189 4.3844 1.4862 4.3844 1.4119 4.6073-0.37156 4.6073-0.44586 4.0871 1.189 4.0871 1.189 3.7156 1.0404 3.7156 0.96604 3.7156 1.6348 3.6412 1.7092 3.7156 2.6009 3.6412 2.6009 4.9045 0.29724 4.9045 0.29725 7.8027 1.9321 7.8027 1.8578 5.2761 4.0128 5.2761 4.0871 4.6816 6.0192 4.6816 6.0192 2.7495 2.4523 2.7495 2.5266 6.7623 5.2018 6.688 5.2018 4.0128 4.31 3.9385 4.3844 5.722 4.533 5.6476 4.6073 4.4587 4.8302 4.4587 4.8302 1.0404 2.2293 1.1147 2.2293 5.9449 6.5394 5.9449 6.4651 1.2633 2.378 1.189 2.4523 0.89173 7.9513 0.81742 8.0256 1.6348 2.6009 1.6348 2.6009 4.6073 4.6073 4.533 4.533v3.121l-1.8578 0.44587-1.8578 0.44587-2.2293 2.5266-2.2293 2.6009v3.8642l4.533 4.2357 4.533 4.1614-0.52018 3.7156-0.44586 3.7899 2.0064 4.2357 2.0064 4.2357 4.31 3.7899 4.31 3.7156 1.3376 4.2357 1.3376 4.1614 6.2421 2.4523 6.1678 2.4523 1.1147-0.96604 1.1147-0.89174-0.44587-2.9724-0.52018-2.8981-0.96604-1.9321-1.0404-1.9321-1.4862-3.344-1.4862-3.344-0.52018-1.7835-0.52018-1.7835-2.0064-3.4183-2.0807-3.4183-0.44587-3.7156-0.52018-3.7156-1.189-3.6412-1.2633-3.6412 0.44586-6.688 0.37156-6.688-1.0404-4.3844-1.0404-4.3844-1.4119-2.7495-1.4119-2.8238-0.52018-2.7495-0.52017-2.7495-2.5266-3.1211-2.5266-3.1954v-1.7092l-1.2633-0.96604-1.189-1.0404-2.6752-4.0871-2.6009-4.0871-2.7495-2.9724-2.8238-2.9724-3.5669-4.1614-3.5669-4.2357-4.4587-5.2761-4.4587-5.2761-7.3568-8.3228-7.3568-8.2485-7.5797-7.5054-7.5797-7.5054-2.155-1.1147-2.155-1.1147-3.7156-3.0468-3.7156-3.0468-2.2293-1.4862-2.3036-1.5605-1.7092-3.4926-1.7092-3.4183-1.5605-1.7835-1.6348-1.7092-1.7835-2.378-1.7835-2.3036-2.8981-2.0064-2.9724-2.0064-2.155-1.189-2.0807-1.189-2.4523-1.7835-2.4523-1.8578-2.0807-0.89174-2.155-0.89173-4.3844-1.4862-4.31-1.4862h-2.0808l-9.9577-3.9385-9.9577-4.0128-3.7156-0.89173-3.6412-0.89174-1.0404-1.4862-0.96605-1.4119h-2.378l-1.189-0.96605-1.189-0.96604-2.9724-0.89174-2.9724-0.81742-20.064-0.74311-20.064-0.81742-9.2889 0.0743h-9.3632z"/>
    <path d="m154.14 916.2-0.44587 0.81743 0.81742 0.81742 0.81743 0.81742v-3.2696h-0.6688l-0.52018 0.81742z"/>
    <path d="m165.81 912.04 0.0743 2.9724 0.74311-2.0807 0.74311-2.155-0.81742-0.81742-0.81742-0.81743 0.0743 2.8981z"/>
    <path d="m185.5 925.56-0.44586 0.44586v1.2633h2.2294v-1.4119l-0.6688-0.37155-0.59449-0.37156-0.52018 0.44587z"/>
    <path d="m177.85 929.2-0.44587 1.1147 0.6688 0.6688 0.6688 0.6688 3.1954-0.44587 3.1211-0.44586v-2.7495h-6.7623l-0.44586 1.189z"/>
    <path d="m129.47 931.14-0.89174 0.89174v2.6752h5.1275l1.189-1.189 1.189-1.189-0.29725-0.89173-0.29724-0.81742-2.5266-0.22294-2.5266-0.22293-0.96604 0.96604z"/>
    <path d="m130.66 1043.6-0.59449 0.5202v5.4247l-0.81743 0.8174-0.74311 0.7431 1.0404 0.4459 1.0404 0.3715 0.74312-0.4458 0.6688-0.5202-0.37156-3.9385-0.44587-4.0128-0.52017 0.5945z"/>
    <path d="m123.08 1051.7 0.44586 1.1147h2.0064l0.37155-0.6688 0.44587-0.6688-1.189-0.4459-1.189-0.4458h-1.2633l0.37156 1.1146z"/>
    <path d="m449.98 739.04-3.5669 4.9788 0.0743 2.8238 0.14863 2.8238 2.155 4.0871 2.155 4.0128 1.4862 2.0807 1.4862 2.0807 1.189 2.8981 1.189 2.8238v4.1614l1.9321 2.3036 1.9321 2.3036h2.1551l3.2697-3.344 3.2697-3.4183 2.2293 0.96605 2.2293 0.96604 3.7156 4.2357 3.6412 4.2357 2.7495 4.3844 2.6752 4.4587 5.0532 2.3036 5.0532 2.3036h1.5605l0.89173 1.1147 0.89173 1.1147h2.9724l2.4523 1.1147 2.378 1.189 0.81743 1.7835 0.81742 1.7835 2.4523 0.22293 2.4523 0.22294 1.0404 3.1954 1.0404 3.2697 3.9385-0.52018 3.9385-0.44587 2.4523 1.2633 2.4523 1.189 3.8642 2.8981 3.8642 2.8981h0.89173l3.2697 2.7495 3.2697 2.6752 0.81742 2.0807 0.89174 2.0807 2.7495 1.8578 2.7495 1.9321h1.4119l2.6752-2.8238 2.6009-2.8238 4.1614-1.9321 4.0871-1.9321 0.44587-1.189 0.44587-1.189-0.59449-3.1954-0.59449-3.2697-2.8981-3.1954-2.8981-3.1954-1.2633-1.189-1.3376-1.189-2.9724-2.8238-2.9724-2.8238-2.0064 0.22293-2.0807 0.22294-0.22293-2.0807-0.22293-2.155-3.7156-5.6476-3.6412-5.722-1.0404-1.1147-1.0404-1.1147-0.52018-2.2293-0.59449-2.2293-1.4862-2.8238-1.5605-2.7495h-6.2422l-0.89173 1.1147-0.96605 1.189-1.5605-0.22293-1.5605-0.22294-0.22293-1.7092-0.22293-1.7092-1.4862-0.89173-1.4119-0.89174v-1.8578h-2.5266l-2.6752-2.6009-2.6009-2.6009-2.4523-0.44586-2.378-0.44587-1.1147 2.6009-1.1147 2.6752v3.7156l-1.7092 2.0064-1.7835 2.0064-1.7092-1.189-1.7092-1.189-0.29724-4.31-0.37156-4.31-1.4862-4.0871-1.5605-4.0871-0.29725-2.9724-0.37155-2.9724-1.1147-1.2633-1.0404-1.189-6.4651-0.0743-6.4651-0.0743h-1.1147l-1.1147-0.0743-2.0064 0.52018-1.9321 0.44587-4.4587-2.0064-4.4587-2.0064-2.8238-2.8981-2.8238-2.8981h-3.121l-3.6412 4.9788z"/>
    <path d="m608.63 906.91-1.0404 1.8578 0.74311 0.52018 0.81742 0.52017 0.81742 1.6348 0.89174 1.5605 0.81742 4.0128 0.81742 3.9385 1.5605 2.9724 1.4862 2.9724 0.59449 5.5733 0.6688 5.5733 1.1147 4.0871 1.1147 4.0871 1.189 4.8302 1.189 4.8302 1.0404 2.4523 1.0404 2.4523v10.106l-1.1147 7.9513-1.1147 8.0256-0.74311 1.3376-0.74312 1.4119v3.121l-1.1147 3.4926-1.1147 3.4926-0.74311 5.5733-0.74311 5.5734-1.1147 4.8302-1.1147 4.8302-1.1147 5.5734-1.0404 5.5733-0.81742 8.5458-0.81743 8.5458-0.59449 4.4586-0.59448 4.4587-1.9321 8.9174-1.8578 8.9173-0.52018 4.0871-0.52018 4.0871-1.8578 7.8027-1.8578 7.8027-0.22293 17.092-0.22293 17.092-0.81743 7.0595-0.89173 7.0596-0.59449 2.6009-0.6688 2.6009-0.89173 5.5733-0.89174 5.5734-1.7092 7.8026-1.7092 7.8027-1.6348 9.2889-1.5605 9.2889-0.81742 2.9724-0.74311 2.9725-0.89174 7.4311-0.89173 7.4311-0.81742 1.8578-0.81743 1.8578-0.81742 4.8302-0.89173 4.8302-1.7835 4.4587-1.7092 4.4587-0.52018 3.344-0.52017 3.344-2.6009 9.6604-2.5266 9.6605-2.6752 8.9173-2.6752 8.9173-4.0128 8.5458-4.0871 8.5458-1.3376 2.6009-1.2633 2.6009-1.189 2.2293-1.189 2.2293-0.89173 3.7156-0.89174 3.7156-3.344 6.688-3.344 6.688-2.3036 3.121-2.3036 3.1211-2.2293 3.7899-2.2293 3.7898-2.6009 3.6413-2.6009 3.6412-5.5733 7.877-5.5733 7.877-3.0468 3.8642-2.9724 3.8642-1.5605 0.2229-1.6348 0.2229-1.2633-1.9321-1.2633-1.8577 0.96604-3.567 0.96605-3.4926 2.8238-2.9724 2.7495-2.9725 0.81742-8.0999 0.81743-8.0999v-8.6201l-1.2633-1.189-1.189-1.2633-2.2293 0.4459-2.3036 0.4458-1.3376 1.2633-1.3376 1.189v1.6349l-3.1954 4.2357-3.1211 4.2357-1.2633 2.3037-1.2633 2.2293h-1.5605l-0.74311-1.8578-0.74312-1.9321 0.89174-5.3504 0.89173-5.3504 1.4862-1.7091 1.4119-1.6349h-3.0467l-0.29725 0.8918-0.29724 0.8917-2.3036-0.966-2.3036-0.8918-2.0807-2.2293-2.0807-2.155h-2.5266l-0.74312-0.9661-0.74311-0.8917-0.29724-4.0871-0.29725-4.0871-1.9321-4.0872-2.0064-4.0871-3.4183-4.0871-3.4183-4.0871-2.7495-2.4523-2.7495-2.3779-3.2697-1.5606-3.344-1.4862-2.6009-1.9321-2.6009-2.0064-3.344-0.6688-3.4183-0.6688-4.2357-0.3715-4.31-0.3716v-2.0064l-1.7835-2.0064-1.7092-2.0807 1.6348-1.2633h6.688l1.8578-1.0403 1.8578-1.0404 2.2293-0.074h2.2293l3.6412 1.9321 3.5669 1.9321 2.5266-2.4523 2.4523-2.3779 3.1954-0.1487 3.1954-0.1486 4.0128-2.6752 4.0128-2.6752 3.0468-0.4459 3.0468-0.4458 3.7156 0.8174 3.7156 0.8174 3.1211 1.0404 3.1211 1.0403 3.8642 1.9321 3.9385 1.8578 2.4523 1.7092 2.5266 1.6348 2.5266 3.7156 2.5266 3.7155 0.89173 3.4183 0.96605 3.4926-1.4119 5.6477-1.3376 5.722 0.74311 2.3779 0.6688 2.378 1.3376 0.2229 1.2633 0.2972 1.5605-1.4119 1.4862-1.3376 2.8238-4.0871 2.7495-4.0871 1.7092-3.344 1.6348-3.344 0.52018-8.9173 0.44586-8.9174 2.0064-3.344 1.9321-3.344 2.378-7.5797 2.3036-7.6541-1.1147-3.9385-1.1147-3.9384-4.2357-4.6073-4.1614-4.6816-0.59449-4.9789-0.52017-5.0531-1.2633-2.3037-1.189-2.3779-0.74311-0.4459-0.81743-0.5202-7.5054 0.074h-7.5054l-2.0807-1.0403-2.0807-1.1147-1.1147-1.6348-1.189-1.6349v-3.5669l-4.4587-4.7559-4.4587-4.756-0.44586-1.8577-0.44587-1.8578 0.96605-2.378 0.96604-2.3779 1.9321-2.2294 1.9321-2.3036 1.7092-2.7495 1.6348-2.8238-0.44587-1.4863-0.52017-1.5605-1.6348-0.7431-1.6348-0.8174-4.533 1.1889-4.533 1.189h-3.9385l-1.4862-0.7431-1.4119-0.8174v-3.7899l1.8578-2.2293 1.8578-2.2293v-4.9046l-2.5266-2.2293-2.5266-2.155-5.4247-1.7092-5.499-1.6348-2.8981 0.3715-2.8981 0.4459-1.9321 1.4119-1.9321 1.4119-2.9724 4.3844-3.0468 4.3843-1.7835 0.8174-1.8578 0.8918-1.9321 0.4458-1.9321 0.4459-1.3376-0.966-1.2633-1.0404-0.29724-6.6137-0.22294-6.6137-0.59449-1.5605-0.59449-1.5605-2.2293-2.5266-2.2293-2.5266-2.155-1.7092-2.155-1.6348h-6.0936l-6.688 1.8578-6.688 1.8578-5.5733 1.0403-5.5733 1.0404-2.0807 0.8174-2.0807 0.8174h-6.8366l-2.9724-0.8917-2.8981-0.8918-2.155-2.155-2.155-2.155v-5.722l0.74311-1.7091 0.74311-1.7092 4.0871-6.5394 4.0128-6.6137 0.52017-1.4862 0.44587-1.4862-0.52018-2.5266-0.44586-2.6009-2.5266-1.1889-2.5266-1.189-4.533 1.9321-4.533 2.0064h-2.7495l-2.155 1.7091-2.0807 1.7835-5.4247 1.3376-5.499 1.3376-2.6752 2.4523-2.7495 2.5265h-0.81743l-1.7092 2.9725-1.6348 2.8981-0.6688 5.4247-0.6688 5.4247-1.8578 5.8706-1.9321 5.9449 1.2633 1.3376 1.189 1.3376h3.4184l4.8302-4.0871 4.8302-4.1614 3.1211-1.0404 3.1211-1.1146h3.121l2.8238 1.8577 2.7495 1.9321 2.4523 4.0871 2.378 4.0128 1.189 2.1551 1.1147 2.155 3.1211 3.4926 3.1211 3.567v5.3504l-1.8578 2.7495-1.8578 2.7495-2.8238 0.8174-2.7495 0.8174-5.9449 1.0404-5.9449 1.1146h-7.4312l-4.0871-1.1146-4.0871-1.0404-2.0807-2.6009-2.155-2.6009-4.533-2.3779-4.6073-2.3037-7.2082-0.2229-7.2082-0.2229-1.0404 1.2633-1.0404 1.1889-0.89173 2.378-0.96605 2.378-2.378 0.7431-2.3036 0.7431-4.6073 0.4458-4.533 0.5202-1.6348-0.8917-1.6348-0.8917-2.0064 1.4119-1.9321 1.4862-2.4523 4.7559-2.378 4.7559 0.74311 2.7495 0.81742 2.8239-1.2633 3.4926-1.2633 3.5669-0.14863 10.032-0.14862 10.032-0.52018 4.4587-0.52018 4.4587 0.81743 2.2293 0.81742 2.155 0.6688 5.2018 0.6688 5.2018-1.189 2.9724-1.1147 3.0468v1.8578l0.0743 1.8577 2.8238 5.1275 2.8238 5.1275 1.8578 1.3376 1.8578 1.4119 2.3036 0.4459 2.3036 0.4458 2.0064-1.7834 2.0807-1.7092 0.0743-4.0871 0.14862-4.0128 1.8578-0.9661 1.8578-1.0403 2.9724 0.4459 2.9724 0.3715 0.74311-0.5945 0.81742-0.5202 1.7092-2.4522 1.7092-2.378 2.0807-1.1146 2.155-1.1147h6.5394l1.8578-1.4862 1.9321-1.4863 2.0064-0.7431 2.0807-0.7431 4.1614 1.0404 4.1614 1.0403 8.9173 1.189 8.9173 1.189 4.3844 2.2293 4.3844 2.2294h5.2018l3.0468 0.8917 3.0468 0.8917 0.74311 0.5202 0.74311 0.5202 4.31 1.5605 4.3844 1.4862 3.344 2.7495 3.344 2.7496 0.37156 1.0403 0.44586 1.1147-2.6752 2.4523-2.6752 2.4522-2.8981 0.5202-2.8238 0.4459-3.344-1.1147-3.2697-1.189h-2.5266l-3.4183 2.155-3.344 2.0808-2.8238 0.5201-2.8981 0.4459-3.4926 3.0468-3.4926 3.121-2.5266 4.9046-2.5266 4.9045-2.9724 2.4523-3.0468 2.4522v4.9789l4.3844 4.0128 4.31 3.9385 1.6348 3.121 1.5605 3.1211 2.9724 4.2357 2.9724 4.2358v1.3376l1.5605 2.0807 1.5605 2.0807-3.7899 3.8642-3.7156 3.7899h-2.6752l-1.9321-2.3037-1.8578-2.3036-2.7495 1.1889-2.7495 1.1147-0.44587 1.189-0.44586 1.1147h-2.0064l-1.189-2.2294-1.1147-2.155v-6.8366l-0.96604-0.3716-1.0404-0.3715-2.0064 0.8174-2.0807 0.7431-2.0064-1.189-2.0064-1.189-4.9788 2.7495-4.9788 2.7496-1.1147-0.4459-1.1147-0.3716-0.89174-1.9321-0.81742-1.8577h-2.5266l-1.7092 1.8577-1.7092 1.8578h-2.6009l-0.74311-0.966-0.74312-0.8918-1.5605-5.6476-1.5605-5.5733v-5.3504l-2.6009-3.8642-2.6009-3.8642v-1.3376l2.3036-4.31 2.2293-4.2358 0.74311-0.7431 0.6688-0.6688v-3.344l-0.81743-0.4459-0.74311-0.5201-2.7495 1.8577-2.7495 1.8578-3.1211 0.5202-3.1211 0.5202-2.6009-5.4991-2.6009-5.4247-1.5605-1.7091-1.5605-1.6349h-2.0064l-0.96604 1.189-0.96605 1.1147-0.89173 7.9513-0.96605 7.9513v5.3504l-0.0743 5.3504-4.0128 2.9724-3.9385 2.9725-2.8981 1.1889-2.8981 1.2633-3.5669 1.0404-3.4926 1.1147-2.6009-0.5202-2.6009-0.4459-2.9724-2.155-2.9724-2.155h-3.344l-2.3036 1.3376-2.378 1.2633-3.1211 2.155-3.0468 2.155-4.0128 0.3716-3.9385 0.2972-5.7963-3.1954-5.722-3.2697-3.0468-4.0128-3.0468-4.0871-3.344-2.9724-3.344-2.9725-5.722-5.7962-5.722-5.7963-4.31-5.3504-4.31-5.2761-3.4926-4.6816-3.4926-4.6816-0.89173-4.6816-0.81743-4.6816-1.4119-4.8302-1.3376-4.9046-0.81742-6.6137-0.74311-6.688-0.6688-4.31-0.74312-4.2358-0.44586-0.7431-0.44587-0.7431h-2.2294l-3.8642 1.189-3.8642 1.189-1.6348 0.5945-1.6348 0.6688-0.6688 2.5265-0.6688 2.5266 0.6688 6.6137 0.74311 6.6137-0.0743 2.4523-0.0743 2.4522 1.1147 1.6349 1.1147 1.5605v3.4183l0.0743 3.344 1.0404 1.8578 1.0404 1.8578 0.0743 2.378v2.4522h1.5605l1.1147 2.8238 1.189 2.7496 1.3376 1.4862 1.2633 1.4862 0.52018 2.2293 0.52018 2.1551 2.2293 2.9724 2.155 2.9725v1.7091l1.5605 1.4119 1.5605 1.4119 1.189 2.2294 1.1147 2.2293 2.3036 2.9724 2.3036 2.9725 3.1211 3.344 3.1954 3.344 1.4119 1.5605 1.4862 1.4863 0.74311 1.932 0.74311 1.9321 1.7092 0.2973 1.7092 0.2229 0.22294 1.8578 0.22293 1.8578 0.96604 0.7431 0.89174 0.7431 0.52018 1.2633 0.44586 1.3376h3.4927l3.4926 4.0128 3.4926 4.0128 2.7495 0.966 2.8238 0.8918 3.344 3.4926 3.344 3.4183 2.8238 1.7092 2.7495 1.7091v1.3376l4.1614 2.8238 4.1614 2.7496 2.6009 1.4119 2.6009 1.3376 0.6688 1.6348 0.74311 1.5605 2.378 1.6349 2.378 1.6348 4.4587 5.1275 4.4587 5.1275 3.4926 2.155 3.5669 2.155v1.8578l2.8238 1.7835 2.7495 1.7091 1.1147 1.3376 1.0404 1.2633 4.4587 2.8981 4.4587 2.8982h1.4862l2.6009 1.7834 2.6752 1.7092 6.3164 4.0871 6.3164 4.0871 4.3844 2.8982 4.4587 2.8981 3.7156 2.0807 3.7899 2.0064 0.74311 1.0404 0.81743 1.0403 3.2697 0.8918 3.344 0.8174 4.8302 2.5266 4.8302 2.4522 3.344 0.8918 3.344 0.8917 1.1147 0.966 1.1147 0.8918 4.0871 1.2633 4.0871 1.2633 1.4862 0.8174 1.4862 0.8174 5.2018 1.4862 5.2018 1.4862 3.344 0.074 3.344 0.1486 1.4862 0.5202 1.4862 0.4458 6.688 0.8174 6.688 0.8175h32.4l7.2082-2.6009 7.2082-2.6009 5.5733-0.8917 5.5733-0.8175 2.5266-1.0403 2.4523-1.0404h2.5266l5.8706-2.4522 5.9449-2.4523 2.9724-2.0064 2.9724-2.0064 1.8578-1.2633 1.8578-1.2633 5.9449-5.499 5.9449-5.499 5.499-5.2761 5.499-5.3504 3.5669-4.2358 3.4926-4.2357 9.5118-9.3632 9.5861-9.3632 4.0871-4.0871 4.0871-4.0128h1.8578l2.0064-3.1211 2.0807-3.0468 1.8578-3.2697 1.8578-3.1953 4.7559-8.0256 4.7559-7.9513 2.6752-4.0128 2.6752-4.0128 2.0064-3.7899 2.0064-3.7899 1.4862-4.6073 1.4862-4.6073 1.0404-2.0807 1.1147-2.0807 2.7495-7.8026 2.8238-7.8027 0.59448-2.6009 0.52018-2.6009 0.81743-2.2293 0.74311-2.2294 3.344-10.775 3.2697-10.775 0.52018-3.344 0.59449-3.344 1.6348-5.6477 1.7092-5.7219 0.52018-4.3101 0.44586-4.3843 0.6688-2.6009 0.6688-2.6009 0.44587-2.0064 0.37156-2.0807 2.3036-2.3037 2.2293-2.3036-0.44587-2.0807-0.44587-2.155 0.81743-1.5606 0.81742-1.5605 0.37155-3.1211 0.37156-3.121 1.7092-9.2889 1.7835-9.2889 0.89174-5.5734 0.81742-5.5733 0.81742-2.8981 0.74311-2.9725 0.6688-5.5733 0.59449-5.6477 0.81743-8.3228 0.74311-8.3972 0.89173-2.0064 0.96605-2.0807v-32.696l1.4119-3.7156 1.4119-3.7155 0.6688-0.6688 0.59449-0.7431v-2.8982l2.6752-7.8769 2.6752-7.877 1.7835-4.4587 1.7092-4.4587 3.344-11.518 3.2697-11.518 0.52018-3.7156 0.52018-3.7155 1.0404-4.4587 0.96605-4.4587-0.14863-1.1146-0.0743-1.1147 0.59449-5.5733 0.59449-5.5734 0.96605-2.2293 0.89173-2.3037 0.44587-4.7559 0.52017-4.8302 0.0743-5.5733 0.14862-5.5734-0.52018-13.376-0.44587-13.376-0.44586-4.4587-0.37156-4.4587-1.0404-3.344-1.0404-3.344-0.81742-6.3164-0.81743-6.3164-1.0404-3.4926-1.0404-3.4926-1.8578-2.8238-1.9321-2.8238v-2.9724l-1.4119-4.4587-1.3376-4.4587-1.3376-2.6009-1.2633-2.6009-3.2697-2.155-3.344-2.0807-1.4119 0.37155-1.4862 0.37156-0.44586-0.6688-0.37156-0.6688h-3.4184z"/>
    <path d="m418.91 1197.5-0.52018 0.4459v4.9788h3.121l-0.44587-1.189-0.44587-1.1889v-3.567h-1.2633l-0.44586 0.5202z"/>
    <path d="m427.83 1203.9-0.44586 3.1954 0.29724 0.223 0.29725 0.2972 0.74311-0.5202 0.81742-0.4458v-5.8706h-1.2633l-0.44587 3.121z"/>
    <path d="m429.76 1235.1-1.7092 0.8174v0.4459l0.0743 0.4459 1.3376 1.6348 1.4119 1.7092h1.6348l0.44586-1.8578 0.44587-1.8578-0.44587-1.1146-0.37155-1.1147-0.59449 0.074h-0.59449l-1.6348 0.8174z"/>
    <path d="m330.34 936.34-2.2293 0.6688h-8.9916l-8.9916-0.0743-1.7835 1.3376-1.7835 1.4119-2.3036 1.189-2.3036 1.189-5.4247 1.1147-5.4247 1.189-4.1614 2.0807-4.1614 2.155-4.1614 0.89174-4.2357 0.89173-5.0532 4.0871-5.1275 4.0871-4.8302 2.6009-4.8302 2.6009-3.0468 2.0064-3.0468 2.0064-3.2697 2.4523-3.2697 2.4523-0.59449 1.6348-0.59449 1.6348 0.52018 7.4311 0.44586 7.4311-2.3036 1.3376-2.3036 1.3376-0.81742 1.5605-0.81742 1.4862 0.37155 1.9321 0.37156 1.9321-0.96605 2.2293-1.0404 2.3037-0.44587 2.8238-0.44587 2.7495-2.8981 1.8578-2.9724 1.8578v4.2357l4.4587 4.9046 4.533 4.9045 2.7495 0.8917 2.7495 0.8175 2.3036 1.4119 2.3036 1.4119 5.499 0.074 5.499 0.074 8.1742 0.074 8.1742 0.074 7.8027-2.4523 7.8027-2.4522 1.8578-1.3376 1.8578-1.2633 3.344-1.1147 3.344-1.1146 0.22294-1.7835 0.29724-1.7835 4.533-4.3843 4.533-4.3844-1.7092-1.3376-1.7092-1.4119h-5.8705l-1.4862-0.7431-1.4119-0.8174v-2.6752l1.7092-1.5606 1.7092-1.6348h2.2294l2.6752-1.3376 2.6752-1.4119 3.4926-0.96605 3.4926-0.96604 0.37156-1.0404 0.44586-1.0404-0.89173-0.89174-0.81742-0.81742-3.4926 0.81742-3.5669 0.81743-5.2018 1.9321-5.2018 1.9321-7.5054 0.6688-7.5054 0.6688-2.4523 1.2632-2.4523 1.2633-3.2697-0.3715-3.2697-0.3716-1.4119-1.2633-1.4862-1.3376v-1.7835l3.344-3.1211 3.344-3.0468h4.0871l3.344-2.2293 3.344-2.2293 3.7156-1.189 3.7156-1.189 3.1211-3.0468 3.1211-2.9724 3.9385-0.6688 3.9385-0.59449 5.9449-0.44586 5.9449-0.52018 3.7156-2.8981 3.7156-2.9724 8.9173 0.52018 8.9173 0.44586 3.5669 1.0404 3.5669 1.0404 4.0871 2.3036 4.0128 2.3036v2.5266l-2.7495 3.0468-2.8238 2.9724-4.2357 2.7495-4.1614 2.8238-5.499 0.89174-5.4247 0.89173v2.8981l1.8578 0.52017 1.8578 0.52018 3.0468 0.0743 3.1211 0.0743 2.4523-1.0404 2.4523-1.0404 3.4183 1.7092 3.344 1.7092 1.8578 2.0064 1.8578 2.0064-1.4862 1.1147-1.4862 1.1147-5.5733-0.4459-5.5733-0.3716-11.295 0.6688-11.37 0.6688-2.0064 1.1147-2.0807 1.1147-2.5266 2.8981-2.5266 2.8981-1.3376 3.6413-1.4119 3.6412v3.8642l1.4862 1.9321 1.4862 1.8578 3.2697 1.5605 3.2697 1.6349 2.6752 0.2972 2.7495 0.3716 1.2633 0.6688 1.2633 0.6688 4.6816 1.1889 4.7559 1.189h10.255l1.1147-1.7091 1.1147-1.7835 0.29724-3.6413 0.22294-3.6412 0.52018-2.2293 0.59449-2.2294 0.74311-2.0807 0.74311-2.0064h1.8578l4.3844 2.3037 4.31 2.3036 4.2357 3.7899 4.2357 3.7155 0.37156 1.2633 0.37155 1.3376-0.59448 0.9661-0.59449 0.966-3.2697 1.189-3.1954 1.189-0.22294 1.1147-0.22293 1.1889 3.7156 1.2633 3.7156 1.189h4.1614l3.1954-1.4862 3.1954-1.4863 3.344 0.8918 3.344 0.8917 1.2633-0.7431 1.2633-0.8174 0.37156-2.8238 0.37155-2.8239 1.6348-0.5945 1.6348-0.5945 4.2357 4.0872 4.31 4.0128-1.7835 3.1953-1.7835 3.1211-2.4523 3.1954-2.4523 3.2697-0.44586 1.7834-0.44587 1.8578 0.52018 0.5202 0.52018 0.5202 6.0192 0.8917 6.0935 0.8918 3.1954 0.074h3.1954l2.378-1.189 2.378-1.189 3.1954-2.378 3.2697-2.3036 2.378-2.0064 2.378-2.0064-0.29725-4.3844-0.29724-4.3843 2.9724-5.499 2.9724-5.4991 1.5605-4.8302 1.5605-4.8302 0.81742-5.3504 0.81743-5.3504 2.0807-2.6752 2.155-2.6752 0.52018-3.4926 0.44587-3.4926 0.96604-3.7156 0.96605-3.7156 0.89173-2.0064 0.96604-2.0064-1.2633-4.0871-1.2633-4.0871-1.1147-0.89173-1.0404-0.81743v-2.8981l1.189-1.7835 1.189-1.7835-0.29725-1.7092-0.22293-1.7092-5.9449-1.9321-6.0192-1.9321-3.6412-2.8238-3.7156-2.7495-0.37155-0.59449-0.37156-0.52018-2.2293-1.1147-2.2293-1.1147-3.1954-0.52017-3.1954-0.44587-2.0064-1.4862-2.0064-1.4119-7.0596-2.2293-7.0596-2.2293-5.0532-0.81743-5.0532-0.81742-7.9513-0.74311-7.9513-0.74311-1.4862-0.0743-1.4862-0.0743-7.8027-0.59448-7.8027-0.6688-3.344-0.66881-3.344-0.74311-7.0596-0.29724-7.0596-0.37156z"/>
    <path d="m487.88 970.67-2.9724 0.96604-3.344 1.7092-3.344 1.7092-1.6348 1.4862-1.7092 1.4862v1.8578l-2.9724 2.378-2.9724 2.378v5.3504l2.0064 2.0807 2.0064 2.0807-0.89173 3.2697-0.81742 3.2697 0.59448 2.155 0.59449 2.155 1.7092 3.2697 1.7092 3.344 2.378 3.1211 2.378 3.121 0.44587 5.7963 0.44586 5.7963 1.4862 5.2018 1.4119 5.2017 1.9321 5.5734 1.9321 5.499v3.6412l2.9724 11.964 2.8981 12.038 0.52018 4.9046 0.52018 4.9788 1.3376 2.2294 1.3376 2.2293 2.8238 1.7835 2.8238 1.7834 2.6009 2.6009 2.6009 2.5266 2.6752 0.8917 2.6752 0.8918 13.302 0.7431 13.302 0.7431 3.344 0.6688 3.344 0.7431h2.6009l2.6009 0.074 3.8642-1.7835 3.8642-1.7834-0.44586-1.7835-0.44587-1.7091-0.81742-0.5202-0.81743-0.5945h-4.756l-0.44587-1.5605-0.52017-1.4863-3.0468-1.4119-3.1211-1.3376-4.2357-1.189-4.31-1.2632-0.6688-1.2633-0.59449-1.2633-0.44587-3.1954-0.37155-3.2697-1.6348-1.7092-1.6348-1.7091-2.4523-0.4459-2.4523-0.5202-3.8642-1.1146-3.7899-1.1147 0.22293-2.0064 0.22294-2.0064 2.0064-0.2229 2.0807-0.223 7.4311 1.8578 7.5054 1.9321 2.2293-1.6348 2.2293-1.7092 1.4862-3.344 1.5605-3.344-0.37156-4.9788-0.44586-5.0532-0.96605-2.0064-0.96604-2.0064-3.344-1.3376-3.344-1.2633-6.3164-0.074-6.3164-0.074-4.2357-0.8917-4.1614-0.8918-2.3036-2.0807-2.3036-2.0064v-1.6348l1.2633-2.1551 1.2633-2.155-0.74311-0.7431-0.74311-0.7431-4.31-1.1147-4.2357-1.1147-3.0468 0.4459-3.0468 0.5202-1.0404-1.3376-0.96605-1.4119v-1.0404l3.5669-2.0807 3.4926-2.155 1.4862-0.074 1.4862-0.1486 4.6073-0.8918 4.6816-0.8917 2.6009-2.0807 2.6009-2.0807 3.4926 0.4458 3.5669 0.3716 2.2293 1.1147 2.2293 1.1146 2.2293 1.5606 2.2293 1.5605 5.2018 1.3376 5.2018 1.3376 7.8027 1.189 7.8027 1.1146 1.4862 0.2973 1.4862 0.2229 5.7963 5.6477 5.8706 5.5733h4.0128l1.7092 1.189 1.7092 1.189-0.44586 3.4926-0.44587 3.4183-0.44587 4.6816-0.44586 4.7559-0.89174 0.2973-0.96604 0.3715-2.0064-0.8174-2.0807-0.7431-7.2082-7.2082-7.1339-7.2082-6.3164-2.8238-6.3164-2.8238-1.2633-0.7431-1.3376-0.7432h-3.8642l0.29724 0.8918 0.29725 0.8917 1.1147 0.5202 1.0404 0.5202 5.0532 2.3779 5.0532 2.378 3.8642 4.0871 3.8642 4.1614 2.8981 2.6752 2.8238 2.6752 1.4119 2.0064 1.4119 1.9321-0.44587 1.189-0.44587 1.189h-2.0808l-2.0807-1.3376-2.0807-1.2633-5.2018-4.3101-5.2761-4.2357h-2.5266l-0.44587 1.189-0.44587 1.189 2.7495 5.3504 2.6752 5.4247v2.3779l-1.9321 1.4863-2.0064 1.5605h-2.8238l-1.6348 0.8174-1.6348 0.8917-1.6348 1.9321-1.5605 1.9321 0.6688 1.2633 0.74311 1.3376h7.0595l1.6348-1.8578 1.6348-1.8577 2.0064 0.074h2.0807l3.7156 2.155 3.7156 2.155 2.8238 1.5605 2.8238 1.5606 3.1211 3.1954 3.1211 3.1953 1.7835 0.9661 1.7835 0.8917 3.7156-0.4458 3.7156-0.5202 2.0064-1.0404 2.0807-1.0403 0.44587-1.189 0.44586-1.2633 0.0743-6.3908 0.0743-6.465 0.59449-4.0871 0.59448-4.0872 1.8578-10.775 1.9321-10.775-0.22293-6.688-0.29725-6.688-0.81742-2.0807-0.81742-2.0807v-3.7156l-1.5605-4.6073-1.4862-4.6073-1.5605-3.2697-1.5605-3.2697-2.3036-2.5265-2.2293-2.6009-3.7899-2.155-3.7899-2.1551-1.6348-1.8578-1.6348-1.8578h-1.5605l-2.378-1.7835-2.378-1.7835-9.2889-3.1211-9.2889-3.0468-4.4587-2.155-4.4587-2.155-4.7559-1.189-4.7559-1.2633-3.4183-1.4862-3.4183-1.5605-6.0935-0.14863-6.0935-0.14862-0.96604-0.74311-0.96605-0.74311-4.533-1.5605-4.533-1.6348-5.8706 0.0743h-5.8706z"/>
    <path d="m508.46 1147.4-0.89173 0.8917v3.6413l2.5266 6.0192 2.5266 6.0192 0.29724 11.518 0.29725 11.518 1.2633 2.378 1.2633 2.3779 3.7156 4.4587 3.7899 4.533 2.155 1.1146 2.155 1.1147h3.0467l1.189-1.8578 1.189-1.8577-0.29724-5.1275-0.22294-5.0532-2.2293-2.7495-2.2293-2.8238-1.4119-1.7092-1.4119-1.7834-0.22293-5.1275-0.14863-5.2018-0.81742-1.5605-0.81742-1.5606-1.5605-0.8174-1.5605-0.8174-1.2633-2.6752-1.189-2.7495-1.4862-2.2293-1.4862-2.2294-0.89174-0.966-0.96604-0.9661v-1.8577l-1.7092-2.378-1.7835-2.3037-0.81742 0.8175z"/>
    <path d="m108.88 929.6-0.24396 1.6635 4.7451 1.7436 4.9026 1.8107 0.36131 0.8982 0.40648 1.0105-1.4326 2.9242-1.3654 2.7668-3.6612 0.95099-3.7064 0.83872-0.20007 1.124-0.0878 1.0789 3.936 1.6778 3.9812 1.79 0.54578 3.3024 0.47867 3.4599-0.13295 0.96658-0.0878 1.0789-2.1332 0.85812-2.1332 0.85812-1.0738 2.519-1.0286 2.6313 2.3616 1.0067 2.519 1.0738 1.6558-3.6663 1.7681-3.7114 4.0884-0.86193 4.2458-0.79482 1.1034 1.1215 1.1485 1.2338 0.61289 3.145 0.61289 3.145 2.8998 0.39886 2.8546 0.28658 0.85177-1.1253 0.85177-1.1253-0.99361-2.4701-1.0388-2.5823-2.6326-1.6803-2.6777-1.7926 0.85177-1.1253 0.91888-1.2827-2.3215-3.5012-2.2092-3.5464 0.66984-2.2261 0.715-2.1138-1.2827-0.91888-1.1253-0.85177-1.5719 0.6323-1.5718 0.6323-1.1253-0.85177-1.1253-0.85176 2.3552-2.2519 2.4675-2.297-0.85812-2.1332-0.90329-2.2455 1.6803-2.6326 1.7926-2.6777-1.306-1.3009-1.1937-1.346-6.3338 1.7652-6.1764 1.8323-2.1126-0.0633-2.1797 0.0941-0.35623 1.7086z"/>
    <path d="m87.325 1063.2 0.32082 2.2661 1.7362 1.0924 1.8555 1.0756 0.59741-0.9362 0.73357-0.8338-0.40524-2.8624-0.38836-2.7432-2.3854 0.3377-2.3854 0.3377 0.32081 2.2661z"/>
   </g>
  </g>
 </g>
</svg>
